<?xml version="1.0" encoding="utf-8"?>
<!-- Generator: Adobe Illustrator 16.0.0, SVG Export Plug-In . SVG Version: 6.00 Build 0)  -->
<!DOCTYPE svg PUBLIC "-//W3C//DTD SVG 1.1//EN" "http://www.w3.org/Graphics/SVG/1.1/DTD/svg11.dtd">
<svg version="1.1" id="Layer_1" xmlns="http://www.w3.org/2000/svg" xmlns:xlink="http://www.w3.org/1999/xlink" x="0px" y="0px"
	 width="1568px" height="1400px" viewBox="0 0 1568 1400" enable-background="new 0 0 1568 1400" xml:space="preserve">
<g>
	<rect fill="#77C7FF" width="1568" height="1226"/>
	<g>
		<rect x="1225.9" y="899.9" fill="#7A7449" width="41.3" height="316.4"/>
		<rect x="1267.3" y="899.9" fill="#706B43" width="41.3" height="316.4"/>
		<path fill="#4E9E62" d="M1267.3,605.4v-64.8c-122.2,0-221.3,99.1-221.3,221.3c0,122.2,99.1,221.3,221.3,221.3v-64.8V605.4z"/>
		<path fill="#468E58" d="M1267.3,540.6v64.8c86.4,0,156.5,70.1,156.5,156.5c0,86.4-70.1,156.5-156.5,156.5v64.8
			c122.2,0,221.3-99.1,221.3-221.3C1488.6,639.6,1389.5,540.6,1267.3,540.6z"/>
		<path fill="#5AB36E" d="M1423.8,761.9c0-86.4-70.1-156.5-156.5-156.5v313C1353.7,918.4,1423.8,848.3,1423.8,761.9z"/>
	</g>
	<rect y="1247.2" fill="#939598" width="1568" height="152.8"/>
	<rect y="1226" fill="#BCBEC0" width="1568" height="21.2"/>
	<path fill="#58595B" d="M405.7,818.7l10.3-4.1v-89.2c0-9.1-7.4-16.5-16.5-16.5c-9.1,0-16.5,7.4-16.5,16.5v67.3
		c-55.9,27-91.7,83.9-91.7,146.3s35.8,119.3,91.7,146.3v93.5c0,9.1,7.4,16.5,16.5,16.5c9.1,0,16.5-7.4,16.5-16.5v-115.4l-10.3-4.1
		c-49.5-19.9-81.4-67.1-81.4-120.3S356.3,838.5,405.7,818.7z"/>
	<g>
		<path fill="#0092C1" d="M259.5,630.7c-1.5,0-2.9-0.5-4.1-1.2l-176,117.2h190.7l77.2-116H259.5z"/>
		<path fill="#0092C1" d="M719.5,746.6l-176-117.2c-1.2,0.8-2.6,1.2-4.1,1.2h-87.8l77.2,116H719.5z"/>
		<polygon fill="#FFFFFF" points="451.6,630.7 347.4,630.7 270.1,746.6 528.8,746.6 		"/>
		<polygon fill="#0092C1" points="427.9,552.4 371.1,552.4 276.9,615.1 522.1,615.1 		"/>
		<path fill="#FFFFFF" d="M539.4,630.7c1.5,0,2.9-0.5,4.1-1.2c2.2-1.4,3.6-3.8,3.6-6.5c0-4.3-3.5-7.8-7.8-7.8h-17.3H276.9h-17.3
			c-4.3,0-7.8,3.5-7.8,7.8c0,2.8,1.4,5.2,3.6,6.5c1.2,0.8,2.6,1.2,4.1,1.2H539.4z"/>
		<polygon fill="#006C8F" points="92.1,777 706.9,777 719.5,746.6 79.4,746.6 		"/>
		<path fill="#58595B" d="M423.7,552.4c-0.4-13.1-11.1-23.6-24.3-23.6s-23.9,10.5-24.3,23.6H423.7z"/>
	</g>
	<g>
		<path fill="#3E8C67" d="M815.1,1130.9c0-28.2-22.9-51.2-51.2-51.2H506.1c-28.3,0-51.1,22.9-51.1,51.2v7.3h-55.4
			c-28.2,0-51.2,22.9-51.2,51.1v3.2h466.7V1130.9z"/>
		<polygon fill="#367857" points="348.3,1192.6 348.3,1226 454.9,1226 454.9,1226 815.1,1226 815.1,1192.6 		"/>
	</g>
	<rect x="581.7" y="664.3" fill="#FFF7D8" width="702.7" height="527.5"/>
	<path fill="#7A6E37" d="M647.6,736.2V1168h239.5V736.2H647.6z M863.2,1144.1H671.5V760.1h191.6V1144.1z"/>
	<path fill="#6FCFF0" d="M842.7,891.7c-13.8,0-25.1-10.5-26.4-23.8c-1.4,13.4-12.7,23.8-26.4,23.8c-13.8,0-25.1-10.5-26.4-23.8
		c-1.4,13.4-12.7,23.8-26.4,23.8c-14.5,0-26.3-11.7-26.6-26.1c-0.3,13.8-11.5,24.9-25.4,24.9c-4.9,0-9.5-1.4-13.4-3.9v257.5h191.6
		V882C858.3,887.9,850.9,891.7,842.7,891.7z"/>
	<path fill="#6FCFF0" d="M1174.1,891.7c-13.8,0-25.1-10.5-26.4-23.8c-1.4,13.4-12.7,23.8-26.4,23.8c-13.8,0-25.1-10.5-26.4-23.8
		c-1.4,13.4-12.7,23.8-26.4,23.8c-14.5,0-26.3-11.7-26.6-26.1c-0.3,13.8-11.5,24.9-25.4,24.9c-4.9,0-9.5-1.4-13.4-3.9v257.5h191.6
		V882C1189.7,887.9,1182.3,891.7,1174.1,891.7z"/>
	<rect x="594" y="864.7" fill="#E0D9BC" width="30.7" height="138"/>
	<rect x="594" y="1030" fill="#E0D9BC" width="30.7" height="138"/>
	<path fill="#64B9D6" d="M671.5,760.1v126.5c3.9,2.4,8.5,3.9,13.4,3.9c13.9,0,25.1-11.1,25.4-24.9c0.3,14.5,12,26.1,26.6,26.1
		c13.8,0,25.1-10.5,26.4-23.8c1.4,13.4,12.7,23.8,26.4,23.8c13.8,0,25.1-10.5,26.4-23.8c1.3,13,12,23.2,25.2,23.8l5.4,228.4
		l-175.3,15v9h191.6V882v-31.8v-90.1H671.5z"/>
	<path fill="#64B9D6" d="M1003,760.1v126.5c3.9,2.4,8.5,3.9,13.4,3.9c13.9,0,25.1-11.1,25.4-24.9c0.3,14.5,12,26.1,26.6,26.1
		c13.8,0,25.1-10.5,26.4-23.8c1.4,13.4,12.7,23.8,26.4,23.8c13.8,0,25.1-10.5,26.4-23.8c1.3,13,12,23.2,25.2,23.8l5.4,228.4
		l-175.3,15v9h191.6V882v-31.8v-90.1H1003z"/>
	<path fill="#7A6E37" d="M979,736.2V1168h239.5V736.2H979z M1194.6,1144.1H1003V760.1h191.6V1144.1z"/>
	<g>
		<path fill="#01A89E" d="M581.7,506.1v158.1h702.7V506.1H581.7z M1273,640.1C1273,640.1,1273,640.1,1273,640.1
			c-7.1,0-12.8,5.7-12.8,12.8H605.9c0-7.1-5.7-12.8-12.8-12.8V530.4c7.1,0,12.8-5.7,12.8-12.8h654.3c0,0,0,0,0,0
			c0,7.1,5.7,12.8,12.8,12.8c0,0,0,0,0,0V640.1z"/>
		<path fill="#FFF7D8" d="M1260.2,517.6C1260.2,517.5,1260.2,517.5,1260.2,517.6l-654.3,0c0,7.1-5.7,12.8-12.8,12.8V640
			c7.1,0,12.8,5.7,12.8,12.8h654.3c0-7.1,5.7-12.8,12.8-12.8c0,0,0,0,0,0V530.4c0,0,0,0,0,0C1266,530.4,1260.2,524.6,1260.2,517.6z"
			/>
	</g>
	<path fill="#FF7767" d="M1318.4,471.7c0-11.4-9.2-20.7-20.7-20.7H568.4c-11.4,0-20.7,9.2-20.7,20.7l0,0c0,11.4,9.2,20.7,20.7,20.7
		h729.3C1309.1,492.4,1318.4,483.1,1318.4,471.7L1318.4,471.7z"/>
	<rect x="568.4" y="492.4" fill="#E0D9BC" width="729.3" height="13.8"/>
	<rect x="568.4" y="664.7" fill="#E0D9BC" width="729.3" height="21.5"/>
	<g>
		<g>
			<rect x="637.2" y="686.2" fill="#FF7767" width="50.7" height="151.4"/>
			<rect x="740.9" y="686.2" fill="#FF7767" width="53" height="151.4"/>
			<rect x="687.9" y="686.2" fill="#FFFFFF" width="53" height="151.4"/>
			<rect x="846.8" y="686.2" fill="#FF7767" width="50.7" height="151.4"/>
			<rect x="793.8" y="686.2" fill="#FFFFFF" width="53" height="151.4"/>
		</g>
		<path fill="#E66A5D" d="M662.5,863c14,0,25.4-11.4,25.4-25.4h-50.8C637.2,851.6,648.5,863,662.5,863z"/>
		<path fill="#E66A5D" d="M872.2,863c14,0,25.4-11.4,25.4-25.4h-50.8C846.8,851.6,858.2,863,872.2,863z"/>
		<path fill="#EBEBEB" d="M714.5,864.2c14.7,0,26.6-11.9,26.6-26.6h-53.2C687.9,852.3,699.8,864.2,714.5,864.2z"/>
		<path fill="#E66A5D" d="M767.4,864.2c14.7,0,26.6-11.9,26.6-26.6h-53.2C740.8,852.3,752.7,864.2,767.4,864.2z"/>
		<path fill="#EBEBEB" d="M820.2,864.2c14.7,0,26.6-11.9,26.6-26.6h-53.2C793.7,852.3,805.6,864.2,820.2,864.2z"/>
	</g>
	<g>
		<g>
			<rect x="968.6" y="686.2" fill="#FF7767" width="50.7" height="151.4"/>
			<rect x="1072.3" y="686.2" fill="#FF7767" width="53" height="151.4"/>
			<rect x="1019.3" y="686.2" fill="#FFFFFF" width="53" height="151.4"/>
			<rect x="1178.3" y="686.2" fill="#FF7767" width="50.7" height="151.4"/>
			<rect x="1125.3" y="686.2" fill="#FFFFFF" width="53" height="151.4"/>
		</g>
		<path fill="#E66A5D" d="M994,863c14,0,25.4-11.4,25.4-25.4h-50.8C968.6,851.6,979.9,863,994,863z"/>
		<path fill="#E66A5D" d="M1203.6,863c14,0,25.4-11.4,25.4-25.4h-50.8C1178.2,851.6,1189.6,863,1203.6,863z"/>
		<path fill="#EBEBEB" d="M1045.9,864.2c14.7,0,26.6-11.9,26.6-26.6h-53.2C1019.3,852.3,1031.2,864.2,1045.9,864.2z"/>
		<path fill="#E66A5D" d="M1098.8,864.2c14.7,0,26.6-11.9,26.6-26.6h-53.2C1072.2,852.3,1084.1,864.2,1098.8,864.2z"/>
		<path fill="#EBEBEB" d="M1151.7,864.2c14.7,0,26.6-11.9,26.6-26.6h-53.2C1125.1,852.3,1137,864.2,1151.7,864.2z"/>
	</g>
	<rect x="910.6" y="699.4" fill="#E0D9BC" width="44.9" height="138"/>
	<rect x="910.6" y="864.7" fill="#E0D9BC" width="44.9" height="138"/>
	<rect x="910.6" y="1030" fill="#E0D9BC" width="44.9" height="138"/>
	<rect x="1241.5" y="699.4" fill="#E0D9BC" width="30.7" height="138"/>
	<rect x="1241.5" y="864.7" fill="#E0D9BC" width="30.7" height="138"/>
	<rect x="1241.5" y="1030" fill="#E0D9BC" width="30.7" height="138"/>
	<rect x="594" y="699.4" fill="#E0D9BC" width="30.7" height="138"/>
	<rect x="566.9" y="1191.8" fill="#01A89E" width="781.3" height="34.2"/>
	<g>
		<path fill="#367857" d="M1367.5,1182.4v16.1h108.8c-7.4-8.4-18.2-13.9-30.3-13.9h-50.3c0-44.8-36.3-81.2-81.1-81.2
			c-5,0-9.9,0.6-14.6,1.5C1317.1,1109.6,1362.3,1127,1367.5,1182.4z"/>
		<path fill="#3E8C67" d="M1367.5,1198.5v-16.1c-5.2-55.4-50.5-72.8-67.6-77.4c-23.2,4.3-43,18.3-54.7,37.7
			c-1.8-0.1-3.5-0.3-5.3-0.3c-34.1,0-61.7,27.6-61.7,61.7c0,7.7,1.5,15,4.1,21.9h304.2c0-0.3,0-0.5,0-0.8c0-10.3-3.9-19.5-10.2-26.7
			H1367.5z"/>
	</g>
	<path fill="#85878A" d="M337.7,1294.4c0,6.7-5.4,12.1-12.1,12.1H57c-6.7,0-12.1-5.4-12.1-12.1l0,0c0-6.7,5.4-12.1,12.1-12.1h268.6
		C332.2,1282.3,337.7,1287.7,337.7,1294.4L337.7,1294.4z"/>
	<path fill="#85878A" d="M549.9,1294.4c0,6.7-5.4,12.1-12.1,12.1H403.5c-6.7,0-12.1-5.4-12.1-12.1l0,0c0-6.7,5.4-12.1,12.1-12.1
		h134.3C544.5,1282.3,549.9,1287.7,549.9,1294.4L549.9,1294.4z"/>
	<path fill="#85878A" d="M445.8,1352.5c0,6.7-5.4,12.1-12.1,12.1H299.4c-6.7,0-12.1-5.4-12.1-12.1l0,0c0-6.7,5.4-12.1,12.1-12.1
		h134.3C440.4,1340.3,445.8,1345.7,445.8,1352.5L445.8,1352.5z"/>
	<path fill="#85878A" d="M707.8,1294.4c0,6.7-5.4,12.1-12.1,12.1h-82.5c-6.7,0-12.1-5.4-12.1-12.1l0,0c0-6.7,5.4-12.1,12.1-12.1
		h82.5C702.4,1282.3,707.8,1287.7,707.8,1294.4L707.8,1294.4z"/>
	<path fill="#6E8A51" d="M150.1,1226h59.8v-163.3c-51.2,0-92.6,41.5-92.6,92.6C117.2,1183.6,130,1209,150.1,1226z"/>
	<path fill="#627A48" d="M269.6,1226c20.1-17,32.9-42.3,32.9-70.7c0-51.2-41.5-92.6-92.6-92.6V1226H269.6z"/>
	<path fill="#FFFFFF" d="M611.1,330.9h-11H567c-16.6,0-30-13.4-30-30.1c0-16.6-13.4-30-30-30H381.9c-16.6,0-30,13.5-30,30
		c0,16.6-13.5,30.1-30.1,30.1l0,0h-31.7H230h-33.1h-57.6c-16.6,0-30.1,13.5-30.1,30c0,16.6,13.5,30,30.1,30h28.4
		c16.6,0,30.1,13.5,30.1,30.1c0,16.6,13.5,30,30,30H261h60.1h31.7h0c16.6,0,30-13.4,30.1-30c0,0,0,0,0,0v0c0-16.6,13.4-30,30-30h0
		h124.9l0,0h73.3h0c16.6,0,30-13.4,30-30C641.2,344.3,627.7,330.9,611.1,330.9z"/>
	<path fill="#FFFFFF" d="M910.5,120h258.4c17.2,0,31.1,13.9,31.1,31.1c0,17.2,13.9,31.1,31.1,31.1l0,0h162l0,0
		c17.2,0,31.1,13.9,31.1,31.1s-13.9,31.1-31.1,31.1h-258.4c-17.2,0-31.1-13.9-31.1-31.1s-13.9-31.1-31.1-31.1h-162l0,0
		c-17.2,0-31.1-13.9-31.1-31.1C879.4,133.9,893.3,120,910.5,120z"/>
	<path fill="#FFFFFF" d="M775.1,391h33.2h60.1h67.2l0,0c16.6,0,30.1-13.5,30.1-30.1c0-16.6-13.5-30.1-30.1-30.1H775.1
		c-16.6,0-30.1,13.5-30.1,30.1C745.1,377.5,758.5,391,775.1,391z"/>
	<path fill="#FFFFFF" d="M429.5,181.1h33.2h60.1H590l0,0c16.6,0,30.1-13.5,30.1-30.1c0-16.6-13.5-30.1-30.1-30.1H429.5
		c-16.6,0-30.1,13.5-30.1,30.1C399.5,167.7,412.9,181.1,429.5,181.1z"/>
	<path fill="#FFFFFF" d="M1071.5,391h33.2h76.6h14.5l0,0c16.6,0,30.1-13.5,30.1-30.1c0-16.6-13.5-30.1-30.1-30.1h-124.3
		c-16.6,0-30.1,13.5-30.1,30.1C1041.5,377.5,1054.9,391,1071.5,391z"/>
	<circle fill="#FFFFFF" cx="745.1" cy="151.1" r="31.1"/>
	<circle fill="#FFFFFF" cx="1345.5" cy="360.9" r="31.1"/>
	<circle fill="#FFFFFF" cx="276.9" cy="151.1" r="31.1"/>
	<g>
		<polygon fill="#FF7064" points="377.2,953.1 202.6,953.1 202.6,1021.5 356.2,1021.5 		"/>
		<polygon fill="#E06358" points="356.2,1021.5 202.6,1021.5 202.6,1039.1 386.3,1039.1 386.3,953.1 377.2,953.1 		"/>
	</g>
	<rect x="221.6" y="1039.1" fill="#FFFFFF" width="22.2" height="186.8"/>
	<rect x="345.1" y="1039.1" fill="#FFFFFF" width="22.2" height="186.8"/>
	<g>
		<rect x="202.6" y="1132.6" fill="#E06358" width="183.7" height="14.2"/>
		<rect x="202.6" y="1110.9" fill="#FF7064" width="183.7" height="21.6"/>
	</g>
	<text transform="matrix(1 0 0 1 618.0449 619.394)" fill="#FF7767" font-family="'BlackHanSans-Regular'" font-size="90.2241">RESTAURANT</text>
	<rect y="1247.2" fill="#85878A" width="1568" height="9.8"/>
</g>
</svg>
